<svg xmlns="http://www.w3.org/2000/svg" xmlns:xlink="http://www.w3.org/1999/xlink" xml:lang="en" height="298.4763627571799pt" width="262.784pt" viewBox="-77.392 -157.19636275717988 262.784 298.4763627571799"><circle cx="127.86" cy="82.68" r="18" style="stroke:#1F1E1D;fill:none;stroke-width:2.0;stroke-dasharray:-;" /><path d="M 40.919999999999995,-0.0 L 54.12,-0" style="stroke:#1F1E1D;fill:none;stroke-width:2.0;stroke-dasharray:-;stroke-linecap:round;stroke-linejoin:round;" /><path d="M 40.919999999999995,13.2 L 40.92,-13.2" style="stroke:#1F1E1D;fill:none;stroke-width:2.0;stroke-dasharray:-;stroke-linecap:round;stroke-linejoin:round;" /><path d="M 27.06,-25.08 L 27.06,-18.48 L 40.92,-6.6" style="stroke:#1F1E1D;fill:none;stroke-width:2.0;stroke-dasharray:-;stroke-linecap:round;stroke-linejoin:round;" /><path d="M 27.06,25.08 L 27.06,18.48 L 40.92,6.6" style="stroke:#1F1E1D;fill:none;stroke-width:2.0;stroke-dasharray:-;stroke-linecap:round;stroke-linejoin:round;" /><path d="M 33.89330942128767,12.62287763889628 L 40.92,6.6" style="stroke:#1F1E1D;fill:none;stroke-width:2.0;stroke-dasharray:-;stroke-linecap:round;stroke-linejoin:round;" /><path d="M 28.579 17.178 L 31.55 9.89 L 36.236 15.356 Z" style="stroke:#1F1E1D;fill:#1f1e1d;stroke-linecap:butt;stroke-linejoin:miter;" /><path d="M 27.06,-25.08 L 27.06,-46.68 L 18.06,-49.68 L 36.06,-55.68 L 18.06,-61.68 L 36.06,-67.68 L 18.06,-73.68 L 36.06,-79.68 L 27.06,-82.68 L 27.06,-104.28" style="stroke:#1F1E1D;fill:none;stroke-width:2.0;stroke-dasharray:-;stroke-linecap:round;stroke-linejoin:round;" /><path d="M 27.06,25.08 L 27.06,34.08 L 27.06,43.08" style="stroke:#1F1E1D;fill:none;stroke-width:2.0;stroke-dasharray:-;stroke-linecap:round;stroke-linejoin:round;" /><path d="M 27.059999999999995,43.080000000000005 L 77.46,43.08 L 127.86,43.08" style="stroke:#1F1E1D;fill:none;stroke-width:2.0;stroke-dasharray:-;stroke-linecap:round;stroke-linejoin:round;" /><path d="M 127.85999999999999,43.080000000000005 L 127.86,64.68 L 127.86,64.68 M 127.86,100.68 L 127.86,100.68 L 127.86,122.28" style="stroke:#1F1E1D;fill:none;stroke-width:2.0;stroke-dasharray:-;stroke-linecap:round;stroke-linejoin:round;" /><path d="M 127.85999999999999,82.68 L 127.86,91.68" style="stroke:#1F1E1D;fill:none;stroke-width:2.0;stroke-dasharray:-;stroke-linecap:round;stroke-linejoin:round;" /><path d="M 127.86 75.68 L 130.56 82.68 L 125.16 82.68 Z" style="stroke:#1F1E1D;fill:#1f1e1d;stroke-linecap:butt;stroke-linejoin:miter;" /><path d="M 127.85999999999997,122.28000000000002 L 127.86,136.68" style="stroke:#1F1E1D;fill:none;stroke-width:2.0;stroke-dasharray:-;stroke-linecap:round;stroke-linejoin:round;" /><path d="M 127.85999999999997,136.68 L 121.11,136.68" style="stroke:#1F1E1D;fill:none;stroke-width:2.0;stroke-dasharray:-;stroke-linecap:round;stroke-linejoin:round;" /><path d="M 127.85999999999997,136.68 L 134.61,136.68" style="stroke:#1F1E1D;fill:none;stroke-width:2.0;stroke-dasharray:-;stroke-linecap:round;stroke-linejoin:round;" /><path d="M 100.8,18.000000000000004 L 114,18" style="stroke:#1F1E1D;fill:none;stroke-width:2.0;stroke-dasharray:-;stroke-linecap:round;stroke-linejoin:round;" /><path d="M 114.0,4.800000000000007 L 114,31.2" style="stroke:#1F1E1D;fill:none;stroke-width:2.0;stroke-dasharray:-;stroke-linecap:round;stroke-linejoin:round;" /><path d="M 114.0,11.400000000000004 L 127.86,-0.48 L 127.86,-7.08" style="stroke:#1F1E1D;fill:none;stroke-width:2.0;stroke-dasharray:-;stroke-linecap:round;stroke-linejoin:round;" /><path d="M 114.0,24.600000000000005 L 127.86,36.48 L 127.86,43.08" style="stroke:#1F1E1D;fill:none;stroke-width:2.0;stroke-dasharray:-;stroke-linecap:round;stroke-linejoin:round;" /><path d="M 114.0,24.600000000000005 L 121.027,30.623" style="stroke:#1F1E1D;fill:none;stroke-width:2.0;stroke-dasharray:-;stroke-linecap:round;stroke-linejoin:round;" /><path d="M 126.341 35.178 L 118.684 33.356 L 123.37 27.89 Z" style="stroke:#1F1E1D;fill:#1f1e1d;stroke-linecap:butt;stroke-linejoin:miter;" /><path d="M 127.85999999999999,-7.079999999999996 L 127.86,-28.68 L 118.86,-31.68 L 136.86,-37.68 L 118.86,-43.68 L 136.86,-49.68 L 118.86,-55.68 L 136.86,-61.68 L 127.86,-64.68 L 127.86,-86.28" style="stroke:#1F1E1D;fill:none;stroke-width:2.0;stroke-dasharray:-;stroke-linecap:round;stroke-linejoin:round;" /><path d="M 27.060000000000002,-104.28000000000002 L 59.74,-98.444 L 64.276,-106.777 L 67.018,-88.002 L 76.089,-104.667 L 78.831,-85.893 L 87.902,-102.558 L 90.644,-83.783 L 95.18,-92.116 L 127.86,-86.28" style="stroke:#D97757;fill:none;stroke-width:2.0;stroke-dasharray:-;stroke-linecap:round;stroke-linejoin:round;" /><path d="M 82.0164933494964,-120.79636275717985 L 80.624,-113" style="stroke:#D97757;fill:none;stroke-width:2.0;stroke-dasharray:-;stroke-linecap:round;stroke-linejoin:round;" /><path d="M 79.394 -106.109 L 77.966 -113.474 L 83.282 -112.525 Z" style="stroke:#D97757;fill:#d97757;stroke-linecap:butt;stroke-linejoin:miter;" /><path d="M 82.0164933494964,-120.79636275717985 L 82.016,-128.896 L 82.016,-136.996" style="stroke:#D97757;fill:none;stroke-width:2.0;stroke-dasharray:-;stroke-linecap:round;stroke-linejoin:round;" /><text x="57.72" y="-11.7" dominant-baseline="central" fill="#1F1E1D" font-size="12" font-family="sans" text-anchor="start"><tspan x="57.72" dy="12">Q1</tspan></text><text x="14.46" y="-76.68" dominant-baseline="central" fill="#1F1E1D" font-size="12" font-family="sans" text-anchor="end"><tspan x="14.46" dy="12">RL</tspan></text><text x="106.25999999999999" y="70.68" dominant-baseline="central" fill="#1F1E1D" font-size="12" font-family="sans" text-anchor="end"><tspan x="106.25999999999999" dy="12">I</tspan></text><text x="131.45999999999998" y="6.300000000000008" dominant-baseline="central" fill="#1F1E1D" font-size="12" font-family="sans" text-anchor="start"><tspan x="131.45999999999998" dy="12">Q2</tspan></text><text x="115.25999999999999" y="-58.68" dominant-baseline="central" fill="#1F1E1D" font-size="12" font-family="sans" text-anchor="end"><tspan x="115.25999999999999" dy="12">RL</tspan></text><text x="75.24503795510591" y="-94.87621254859314" dominant-baseline="hanging" fill="#D97757" font-size="12" font-family="sans" text-anchor="middle"><tspan x="75.24503795510591" dy="12">R</tspan></text><text x="82.0164933494964" y="-152.59636275717986" dominant-baseline="ideographic" fill="#D97757" font-size="12" font-family="sans" text-anchor="middle"><tspan x="82.0164933494964" dy="12">+Vc</tspan></text><text x="54.0" y="-152.4" dominant-baseline="central" fill="#D97757" font-size="12" font-family="sans" text-anchor="middle"><tspan x="54.0" dy="12">Fig 7.10  ·  pot in the collectors, not the emitters</tspan></text><circle cx="27.06" cy="43.08" r="2.7" style="stroke:#1F1E1D;fill:#1f1e1d;stroke-width:2.0;stroke-dasharray:-;" /><circle cx="127.86" cy="43.08" r="2.7" style="stroke:#1F1E1D;fill:#1f1e1d;stroke-width:2.0;stroke-dasharray:-;" /></svg>