<svg xmlns="http://www.w3.org/2000/svg" xmlns:xlink="http://www.w3.org/1999/xlink" xml:lang="en" height="297.56pt" width="194.74400000000003pt" viewBox="-35.416 -138.88000000000002 194.74400000000003 297.56"><circle cx="120.66" cy="84.48" r="18" style="stroke:#1F1E1D;fill:none;stroke-width:2.0;stroke-dasharray:-;" /><path d="M 40.919999999999995,-0.0 L 54.12,-0" style="stroke:#1F1E1D;fill:none;stroke-width:2.0;stroke-dasharray:-;stroke-linecap:round;stroke-linejoin:round;" /><path d="M 40.919999999999995,13.2 L 40.92,-13.2" style="stroke:#1F1E1D;fill:none;stroke-width:2.0;stroke-dasharray:-;stroke-linecap:round;stroke-linejoin:round;" /><path d="M 27.06,-25.08 L 27.06,-18.48 L 40.92,-6.6" style="stroke:#1F1E1D;fill:none;stroke-width:2.0;stroke-dasharray:-;stroke-linecap:round;stroke-linejoin:round;" /><path d="M 27.06,25.08 L 27.06,18.48 L 40.92,6.6" style="stroke:#1F1E1D;fill:none;stroke-width:2.0;stroke-dasharray:-;stroke-linecap:round;stroke-linejoin:round;" /><path d="M 33.89330942128767,12.62287763889628 L 40.92,6.6" style="stroke:#1F1E1D;fill:none;stroke-width:2.0;stroke-dasharray:-;stroke-linecap:round;stroke-linejoin:round;" /><path d="M 28.579 17.178 L 31.55 9.89 L 36.236 15.356 Z" style="stroke:#1F1E1D;fill:#1f1e1d;stroke-linecap:butt;stroke-linejoin:miter;" /><path d="M 54.12,-0.0 L 39.72,-0 L 25.32,-0" style="stroke:#1F1E1D;fill:none;stroke-width:2.0;stroke-dasharray:-;stroke-linecap:round;stroke-linejoin:round;" /><path d="M 27.06,-25.08 L 27.06,-46.68 L 18.06,-49.68 L 36.06,-55.68 L 18.06,-61.68 L 36.06,-67.68 L 18.06,-73.68 L 36.06,-79.68 L 27.06,-82.68 L 27.06,-104.28" style="stroke:#1F1E1D;fill:none;stroke-width:2.0;stroke-dasharray:-;stroke-linecap:round;stroke-linejoin:round;" /><path d="M 27.060000000000002,-104.28000000000002 L 27.06,-118.68" style="stroke:#1F1E1D;fill:none;stroke-width:2.0;stroke-dasharray:-;stroke-linecap:round;stroke-linejoin:round;" /><path d="M 27.060000000000002,-118.68 L 20.31,-118.68" style="stroke:#1F1E1D;fill:none;stroke-width:2.0;stroke-dasharray:-;stroke-linecap:round;stroke-linejoin:round;" /><path d="M 27.060000000000002,-118.68 L 33.81,-118.68" style="stroke:#1F1E1D;fill:none;stroke-width:2.0;stroke-dasharray:-;stroke-linecap:round;stroke-linejoin:round;" /><path d="M 27.06,25.08 L 27.06,34.98 L 27.06,44.88" style="stroke:#1F1E1D;fill:none;stroke-width:2.0;stroke-dasharray:-;stroke-linecap:round;stroke-linejoin:round;" /><path d="M 27.059999999999995,44.879999999999995 L 73.86,44.88 L 120.66,44.88" style="stroke:#1F1E1D;fill:none;stroke-width:2.0;stroke-dasharray:-;stroke-linecap:round;stroke-linejoin:round;" /><path d="M 120.66,44.879999999999995 L 120.66,66.48 L 120.66,66.48 M 120.66,102.48 L 120.66,102.48 L 120.66,124.08" style="stroke:#1F1E1D;fill:none;stroke-width:2.0;stroke-dasharray:-;stroke-linecap:round;stroke-linejoin:round;" /><path d="M 120.66,84.48 L 120.66,93.48" style="stroke:#1F1E1D;fill:none;stroke-width:2.0;stroke-dasharray:-;stroke-linecap:round;stroke-linejoin:round;" /><path d="M 120.66 77.48 L 123.36 84.48 L 117.96 84.48 Z" style="stroke:#1F1E1D;fill:#1f1e1d;stroke-linecap:butt;stroke-linejoin:miter;" /><path d="M 120.65999999999998,124.08 L 120.66,138.48" style="stroke:#1F1E1D;fill:none;stroke-width:2.0;stroke-dasharray:-;stroke-linecap:round;stroke-linejoin:round;" /><path d="M 120.65999999999998,138.48 L 113.91,138.48" style="stroke:#1F1E1D;fill:none;stroke-width:2.0;stroke-dasharray:-;stroke-linecap:round;stroke-linejoin:round;" /><path d="M 120.65999999999998,138.48 L 127.41,138.48" style="stroke:#1F1E1D;fill:none;stroke-width:2.0;stroke-dasharray:-;stroke-linecap:round;stroke-linejoin:round;" /><path d="M 93.60000000000001,19.799999999999997 L 106.8,19.8" style="stroke:#1F1E1D;fill:none;stroke-width:2.0;stroke-dasharray:-;stroke-linecap:round;stroke-linejoin:round;" /><path d="M 106.80000000000001,6.6000000000000005 L 106.8,33" style="stroke:#1F1E1D;fill:none;stroke-width:2.0;stroke-dasharray:-;stroke-linecap:round;stroke-linejoin:round;" /><path d="M 106.80000000000001,13.199999999999998 L 120.66,1.32 L 120.66,-5.28" style="stroke:#1F1E1D;fill:none;stroke-width:2.0;stroke-dasharray:-;stroke-linecap:round;stroke-linejoin:round;" /><path d="M 106.80000000000001,26.4 L 120.66,38.28 L 120.66,44.88" style="stroke:#1F1E1D;fill:none;stroke-width:2.0;stroke-dasharray:-;stroke-linecap:round;stroke-linejoin:round;" /><path d="M 106.80000000000001,26.4 L 113.827,32.423" style="stroke:#1F1E1D;fill:none;stroke-width:2.0;stroke-dasharray:-;stroke-linecap:round;stroke-linejoin:round;" /><path d="M 119.141 36.978 L 111.484 35.156 L 116.17 29.69 Z" style="stroke:#1F1E1D;fill:#1f1e1d;stroke-linecap:butt;stroke-linejoin:miter;" /><path d="M 93.60000000000001,19.799999999999997 L 108,19.8 L 122.4,19.8" style="stroke:#1F1E1D;fill:none;stroke-width:2.0;stroke-dasharray:-;stroke-linecap:round;stroke-linejoin:round;" /><path d="M 120.66,-5.280000000000002 L 120.66,-26.88 L 111.66,-29.88 L 129.66,-35.88 L 111.66,-41.88 L 129.66,-47.88 L 111.66,-53.88 L 129.66,-59.88 L 120.66,-62.88 L 120.66,-84.48" style="stroke:#1F1E1D;fill:none;stroke-width:2.0;stroke-dasharray:-;stroke-linecap:round;stroke-linejoin:round;" /><path d="M 120.66,-84.48 L 120.66,-98.88" style="stroke:#1F1E1D;fill:none;stroke-width:2.0;stroke-dasharray:-;stroke-linecap:round;stroke-linejoin:round;" /><path d="M 120.66,-98.88 L 113.91,-98.88" style="stroke:#1F1E1D;fill:none;stroke-width:2.0;stroke-dasharray:-;stroke-linecap:round;stroke-linejoin:round;" /><path d="M 120.66,-98.88 L 127.41,-98.88" style="stroke:#1F1E1D;fill:none;stroke-width:2.0;stroke-dasharray:-;stroke-linecap:round;stroke-linejoin:round;" /><path d="M 27.06,-25.08 L 39.66,-25.08 L 52.26,-25.08" style="stroke:#1F1E1D;fill:none;stroke-width:2.0;stroke-dasharray:-;stroke-linecap:round;stroke-linejoin:round;" /><path d="M 131.46,-25.08 L 136.86,-25.08 L 142.26,-25.08" style="stroke:#1F1E1D;fill:none;stroke-width:2.0;stroke-dasharray:-;stroke-linecap:round;stroke-linejoin:round;" /><text x="57.72" y="-11.7" dominant-baseline="central" fill="#1F1E1D" font-size="12" font-family="sans" text-anchor="start"><tspan x="57.72" dy="12">Q1</tspan></text><text x="21.719999999999995" y="-12.000000000000004" dominant-baseline="central" fill="#1F1E1D" font-size="12" font-family="sans" text-anchor="end"><tspan x="21.719999999999995" dy="12">vI1  −</tspan></text><text x="14.46" y="-76.68" dominant-baseline="central" fill="#1F1E1D" font-size="12" font-family="sans" text-anchor="end"><tspan x="14.46" dy="12">RL</tspan></text><text x="27.060000000000002" y="-134.28000000000003" dominant-baseline="ideographic" fill="#1F1E1D" font-size="12" font-family="sans" text-anchor="middle"><tspan x="27.060000000000002" dy="12">+V</tspan></text><text x="99.05999999999999" y="72.48" dominant-baseline="central" fill="#1F1E1D" font-size="12" font-family="sans" text-anchor="end"><tspan x="99.05999999999999" dy="12">I</tspan></text><text x="120.65999999999998" y="130.08" dominant-baseline="hanging" fill="#1F1E1D" font-size="12" font-family="sans" text-anchor="middle"><tspan x="120.65999999999998" dy="12">−V2</tspan></text><text x="124.26" y="8.100000000000001" dominant-baseline="central" fill="#1F1E1D" font-size="12" font-family="sans" text-anchor="start"><tspan x="124.26" dy="12">Q2</tspan></text><text x="126.0" y="7.799999999999997" dominant-baseline="central" fill="#1F1E1D" font-size="12" font-family="sans" text-anchor="start"><tspan x="126.0" dy="12">+  vI2</tspan></text><text x="108.05999999999999" y="-56.88" dominant-baseline="central" fill="#1F1E1D" font-size="12" font-family="sans" text-anchor="end"><tspan x="108.05999999999999" dy="12">RL</tspan></text><text x="91.86" y="-37.08" dominant-baseline="central" fill="black" font-size="12" font-family="sans" text-anchor="middle"><tspan x="91.86" dy="12">vo</tspan></text><text x="61.2" y="-138.0" dominant-baseline="central" fill="#1F1E1D" font-size="12" font-family="sans" text-anchor="middle"><tspan x="61.2" dy="12">Fig 7.4  ·  INT1 inverting ← Q1 base</tspan></text><circle cx="27.06" cy="44.88" r="2.7" style="stroke:#1F1E1D;fill:#1f1e1d;stroke-width:2.0;stroke-dasharray:-;" /><circle cx="120.66" cy="44.88" r="2.7" style="stroke:#1F1E1D;fill:#1f1e1d;stroke-width:2.0;stroke-dasharray:-;" /></svg>