<svg xmlns="http://www.w3.org/2000/svg" xmlns:xlink="http://www.w3.org/1999/xlink" xml:lang="en" height="210.14000000000001pt" width="601.4045726811989pt" viewBox="-12.663999999999998 -115.0 601.4045726811989 210.14000000000001"><path d="M 0.0,-0.0 L 23.4,-0 L 26.4,-9 L 32.4,9 L 38.4,-9 L 44.4,9 L 50.4,-9 L 56.4,9 L 59.4,-0 L 82.8,-0" style="stroke:#1F1E1D;fill:none;stroke-width:2.0;stroke-dasharray:-;stroke-linecap:round;stroke-linejoin:round;" /><path d="M 82.8,-0.0 L 82.8,-41.4 L 82.8,-82.8" style="stroke:#1F1E1D;fill:none;stroke-width:2.0;stroke-dasharray:-;stroke-linecap:round;stroke-linejoin:round;" /><path d="M 82.8,-82.8 L 106.2,-82.8 L 109.2,-91.8 L 115.2,-73.8 L 121.2,-91.8 L 127.2,-73.8 L 133.2,-91.8 L 139.2,-73.8 L 142.2,-82.8 L 165.6,-82.8" style="stroke:#1F1E1D;fill:none;stroke-width:2.0;stroke-dasharray:-;stroke-linecap:round;stroke-linejoin:round;" /><path d="M 165.6,-82.8 L 165.6,-41.4 L 165.6,-0" style="stroke:#1F1E1D;fill:none;stroke-width:2.0;stroke-dasharray:-;stroke-linecap:round;stroke-linejoin:round;" /><path d="M 82.8,-0.0 L 88.2,-0 L 93.6,-0" style="stroke:#1F1E1D;fill:none;stroke-width:2.0;stroke-dasharray:-;stroke-linecap:round;stroke-linejoin:round;" /><path d="M 116.1,22.5 L 116.1,-22.5 L 194.042,22.5 L 116.1,67.5 L 116.1,22.5 M 194.042,22.5" style="stroke:#1F1E1D;fill:none;stroke-width:2.0;stroke-dasharray:-;stroke-linecap:round;stroke-linejoin:round;" /><path d="M 122.24278579257492,-0.0 L 129.443,-0" style="stroke:#1F1E1D;fill:none;stroke-width:2.0;stroke-dasharray:-;stroke-linecap:round;stroke-linejoin:round;" /><path d="M 122.24278579257492,45.0 L 129.443,45" style="stroke:#1F1E1D;fill:none;stroke-width:2.0;stroke-dasharray:-;stroke-linecap:round;stroke-linejoin:round;" /><path d="M 125.84278579257492,48.6 L 125.843,41.4" style="stroke:#1F1E1D;fill:none;stroke-width:2.0;stroke-dasharray:-;stroke-linecap:round;stroke-linejoin:round;" /><path d="M 93.6,-0.0 L 116.1,-0" style="stroke:#1F1E1D;fill:none;stroke-width:2.0;stroke-dasharray:-;stroke-linecap:round;stroke-linejoin:round;" /><path d="M 93.6,45.0 L 116.1,45" style="stroke:#1F1E1D;fill:none;stroke-width:2.0;stroke-dasharray:-;stroke-linecap:round;stroke-linejoin:round;" /><path d="M 194.04228634059945,22.5 L 216.542,22.5" style="stroke:#1F1E1D;fill:none;stroke-width:2.0;stroke-dasharray:-;stroke-linecap:round;stroke-linejoin:round;" /><path d="M 93.6,45.0 L 93.6,59.4 L 84.6,59.4 L 102.6,59.4 M 87.3,63.72 L 99.9,63.72 M 91.8,68.04 L 95.4,68.04" style="stroke:#1F1E1D;fill:none;stroke-width:2.0;stroke-dasharray:-;stroke-linecap:round;stroke-linejoin:round;" /><path d="M 216.54228634059945,22.5 L 225.542,22.5 L 234.542,22.5" style="stroke:#1F1E1D;fill:none;stroke-width:2.0;stroke-dasharray:-;stroke-linecap:round;stroke-linejoin:round;" /><path d="M 234.54228634059945,22.5 L 257.942,22.5 L 260.942,13.5 L 266.942,31.5 L 272.942,13.5 L 278.942,31.5 L 284.942,13.5 L 290.942,31.5 L 293.942,22.5 L 317.342,22.5" style="stroke:#1F1E1D;fill:none;stroke-width:2.0;stroke-dasharray:-;stroke-linecap:round;stroke-linejoin:round;" /><path d="M 317.34228634059946,22.5 L 317.342,-18.9 L 317.342,-60.3" style="stroke:#1F1E1D;fill:none;stroke-width:2.0;stroke-dasharray:-;stroke-linecap:round;stroke-linejoin:round;" /><path d="M 317.34228634059946,-60.3 L 355.502,-60.3 M 355.502,-69.3 L 355.502,-51.3 M 361.982,-69.3 L 361.982,-51.3 M 361.982,-60.3 L 400.142,-60.3" style="stroke:#1F1E1D;fill:none;stroke-width:2.0;stroke-dasharray:-;stroke-linecap:round;stroke-linejoin:round;" /><path d="M 400.1422863405994,-60.3 L 400.142,-18.9 L 400.142,22.5" style="stroke:#1F1E1D;fill:none;stroke-width:2.0;stroke-dasharray:-;stroke-linecap:round;stroke-linejoin:round;" /><path d="M 317.34228634059946,22.5 L 322.742,22.5 L 328.142,22.5" style="stroke:#1F1E1D;fill:none;stroke-width:2.0;stroke-dasharray:-;stroke-linecap:round;stroke-linejoin:round;" /><path d="M 350.64228634059947,45.0 L 350.642,-0 L 428.585,45 L 350.642,90 L 350.642,45 M 428.585,45" style="stroke:#D97757;fill:none;stroke-width:2.0;stroke-dasharray:-;stroke-linecap:round;stroke-linejoin:round;" /><path d="M 356.7850721331744,22.5 L 363.985,22.5" style="stroke:#D97757;fill:none;stroke-width:2.0;stroke-dasharray:-;stroke-linecap:round;stroke-linejoin:round;" /><path d="M 356.7850721331744,67.5 L 363.985,67.5" style="stroke:#D97757;fill:none;stroke-width:2.0;stroke-dasharray:-;stroke-linecap:round;stroke-linejoin:round;" /><path d="M 360.3850721331744,71.10000000000001 L 360.385,63.9" style="stroke:#D97757;fill:none;stroke-width:2.0;stroke-dasharray:-;stroke-linecap:round;stroke-linejoin:round;" /><path d="M 328.14228634059947,22.5 L 350.642,22.5" style="stroke:#D97757;fill:none;stroke-width:2.0;stroke-dasharray:-;stroke-linecap:round;stroke-linejoin:round;" /><path d="M 328.14228634059947,67.5 L 350.642,67.5" style="stroke:#D97757;fill:none;stroke-width:2.0;stroke-dasharray:-;stroke-linecap:round;stroke-linejoin:round;" /><path d="M 428.584572681199,45.0 L 451.085,45" style="stroke:#D97757;fill:none;stroke-width:2.0;stroke-dasharray:-;stroke-linecap:round;stroke-linejoin:round;" /><path d="M 328.14228634059947,67.5 L 328.142,81.9 L 319.142,81.9 L 337.142,81.9 M 321.842,86.22 L 334.442,86.22 M 326.342,90.54 L 329.942,90.54" style="stroke:#1F1E1D;fill:none;stroke-width:2.0;stroke-dasharray:-;stroke-linecap:round;stroke-linejoin:round;" /><path d="M 451.084572681199,45.0 L 492.485,45 L 533.885,45" style="stroke:#1F1E1D;fill:none;stroke-width:2.0;stroke-dasharray:-;stroke-linecap:round;stroke-linejoin:round;" /><text x="41.4" y="-24.6" dominant-baseline="ideographic" fill="#1F1E1D" font-size="12" font-family="sans" text-anchor="middle"><tspan x="41.4" dy="12">R</tspan></text><text x="124.19999999999999" y="-107.39999999999999" dominant-baseline="ideographic" fill="#1F1E1D" font-size="12" font-family="sans" text-anchor="middle"><tspan x="124.19999999999999" dy="12">R</tspan></text><text x="158.67114317029973" y="6.900000000000002" dominant-baseline="central" fill="#1F1E1D" font-size="12" font-family="sans" text-anchor="middle"><tspan x="158.67114317029973" dy="12">error ao</tspan></text><text x="275.9422863405994" y="-2.0999999999999996" dominant-baseline="ideographic" fill="#1F1E1D" font-size="12" font-family="sans" text-anchor="middle"><tspan x="275.9422863405994" dy="12">R (1/R)</tspan></text><text x="358.74228634059943" y="-84.89999999999999" dominant-baseline="ideographic" fill="#1F1E1D" font-size="12" font-family="sans" text-anchor="middle"><tspan x="358.74228634059943" dy="12">CL</tspan></text><text x="393.21342951089923" y="29.4" dominant-baseline="central" fill="#D97757" font-size="12" font-family="sans" text-anchor="middle"><tspan x="393.21342951089923" dy="12">load INT</tspan></text><text x="537.484572681199" y="33.0" dominant-baseline="central" fill="#1F1E1D" font-size="12" font-family="sans" text-anchor="start"><tspan x="537.484572681199" dy="12">Vl model</tspan></text><text x="183.6" y="-116.39999999999999" dominant-baseline="central" fill="#D97757" font-size="12" font-family="sans" text-anchor="middle"><tspan x="183.6" dy="12">analog twin of Fig 5.3  ·  overlay on the real Vl</tspan></text><circle cx="0" cy="-0" r="2.7" style="stroke:#1F1E1D;fill:white;stroke-width:2.0;stroke-dasharray:-;" /><text x="0.0" y="-18.3" dominant-baseline="ideographic" fill="#1F1E1D" font-size="12" font-family="sans" text-anchor="middle"><tspan x="0.0" dy="12">VR</tspan></text><circle cx="82.8" cy="-0" r="2.7" style="stroke:#1F1E1D;fill:#1f1e1d;stroke-width:2.0;stroke-dasharray:-;" /><circle cx="165.6" cy="-0" r="2.7" style="stroke:#1F1E1D;fill:#1f1e1d;stroke-width:2.0;stroke-dasharray:-;" /><circle cx="317.342" cy="22.5" r="2.7" style="stroke:#1F1E1D;fill:#1f1e1d;stroke-width:2.0;stroke-dasharray:-;" /><circle cx="400.142" cy="22.5" r="2.7" style="stroke:#1F1E1D;fill:#1f1e1d;stroke-width:2.0;stroke-dasharray:-;" /></svg>