<svg xmlns="http://www.w3.org/2000/svg" xmlns:xlink="http://www.w3.org/1999/xlink" xml:lang="en" height="142.24pt" width="375.1602863405995pt" viewBox="-12.652000000000001 -69.6 375.1602863405995 142.24"><polygon points="246.242,13.5 258.842,22.5 246.242,31.5 " style="stroke:#D97757;fill:none;stroke-width:2.0;stroke-dasharray:-;stroke-linecap:round;stroke-linejoin:round;" /><path d="M 0.0,-0.0 L 36,-0 L 39,-9 L 45,9 L 51,-9 L 57,9 L 63,-9 L 69,9 L 72,-0 L 108,-0" style="stroke:#D97757;fill:none;stroke-width:2.0;stroke-dasharray:-;stroke-linecap:round;stroke-linejoin:round;" /><path d="M 108.0,-0.0 L 108,-20.7 L 108,-41.4" style="stroke:#D97757;fill:none;stroke-width:2.0;stroke-dasharray:-;stroke-linecap:round;stroke-linejoin:round;" /><path d="M 108.0,-41.4 L 144,-41.4 L 147,-50.4 L 153,-32.4 L 159,-50.4 L 165,-32.4 L 171,-50.4 L 177,-32.4 L 180,-41.4 L 216,-41.4" style="stroke:#D97757;fill:none;stroke-width:2.0;stroke-dasharray:-;stroke-linecap:round;stroke-linejoin:round;" /><path d="M 216.0,-41.4 L 216,-20.7 L 216,-0" style="stroke:#D97757;fill:none;stroke-width:2.0;stroke-dasharray:-;stroke-linecap:round;stroke-linejoin:round;" /><path d="M 108.0,-0.0 L 114.3,-0 L 120.6,-0" style="stroke:#D97757;fill:none;stroke-width:2.0;stroke-dasharray:-;stroke-linecap:round;stroke-linejoin:round;" /><path d="M 120.60000000000001,22.5 L 120.6,-22.5 L 198.542,22.5 L 120.6,67.5 L 120.6,22.5 M 198.542,22.5" style="stroke:#D97757;fill:none;stroke-width:2.0;stroke-dasharray:-;stroke-linecap:round;stroke-linejoin:round;" /><path d="M 126.74278579257494,-0.0 L 133.943,-0" style="stroke:#D97757;fill:none;stroke-width:2.0;stroke-dasharray:-;stroke-linecap:round;stroke-linejoin:round;" /><path d="M 126.74278579257494,45.0 L 133.943,45" style="stroke:#D97757;fill:none;stroke-width:2.0;stroke-dasharray:-;stroke-linecap:round;stroke-linejoin:round;" /><path d="M 130.34278579257494,48.6 L 130.343,41.4" style="stroke:#D97757;fill:none;stroke-width:2.0;stroke-dasharray:-;stroke-linecap:round;stroke-linejoin:round;" /><path d="M 120.60000000000001,45.0 L 120.6,59.4 L 111.6,59.4 L 129.6,59.4 M 114.3,63.72 L 126.9,63.72 M 118.8,68.04 L 122.4,68.04" style="stroke:#D97757;fill:none;stroke-width:2.0;stroke-dasharray:-;stroke-linecap:round;stroke-linejoin:round;" /><path d="M 198.5422863405995,22.5 L 246.242,22.5 M 258.842,13.5 L 258.842,31.5 M 258.842,22.5 L 306.542,22.5" style="stroke:#D97757;fill:none;stroke-width:2.0;stroke-dasharray:-;stroke-linecap:round;stroke-linejoin:round;" /><path d="M 306.5422863405995,22.5 L 315.542,22.5 L 324.542,22.5" style="stroke:#D97757;fill:none;stroke-width:2.0;stroke-dasharray:-;stroke-linecap:round;stroke-linejoin:round;" /><text x="54.0" y="-23.6" dominant-baseline="ideographic" fill="#D97757" font-size="11" font-family="sans" text-anchor="middle"><tspan x="54.0" dy="11">R</tspan></text><text x="162.0" y="-65.0" dominant-baseline="ideographic" fill="#D97757" font-size="11" font-family="sans" text-anchor="middle"><tspan x="162.0" dy="11">R</tspan></text><text x="252.5422863405995" y="-1.0999999999999996" dominant-baseline="ideographic" fill="#D97757" font-size="11" font-family="sans" text-anchor="middle"><tspan x="252.5422863405995" dy="11">D</tspan></text><text x="328.14228634059947" y="11.5" dominant-baseline="central" fill="#D97757" font-size="11" font-family="sans" text-anchor="start"><tspan x="328.14228634059947" dy="11">Vo ≥ 0</tspan></text><circle cx="0" cy="-0" r="2.7" style="stroke:#D97757;fill:white;stroke-width:2.0;stroke-dasharray:-;" /><text x="0.0" y="-17.3" dominant-baseline="ideographic" fill="#D97757" font-size="11" font-family="sans" text-anchor="middle"><tspan x="0.0" dy="11">Vin</tspan></text><circle cx="108" cy="-0" r="2.7" style="stroke:#D97757;fill:#d97757;stroke-width:2.0;stroke-dasharray:-;" /><circle cx="216" cy="-0" r="2.7" style="stroke:#D97757;fill:#d97757;stroke-width:2.0;stroke-dasharray:-;" /></svg>