<svg xmlns="http://www.w3.org/2000/svg" xmlns:xlink="http://www.w3.org/1999/xlink" xml:lang="en" height="350.79999999999995pt" width="287.19428634059943pt" viewBox="-11.991999999999999 -91.97999999999999 287.19428634059943 350.79999999999995"><path d="M 0.0,-0.0 L 54,-0 L 108,-0" style="stroke:#D97757;fill:none;stroke-width:2.0;stroke-dasharray:-;stroke-linecap:round;stroke-linejoin:round;" /><path d="M 108.0,-22.5 L 108,-67.5 L 185.942,-22.5 L 108,22.5 L 108,-22.5 M 185.942,-22.5" style="stroke:#D97757;fill:none;stroke-width:2.0;stroke-dasharray:-;stroke-linecap:round;stroke-linejoin:round;" /><path d="M 114.14278579257493,-45.0 L 121.343,-45" style="stroke:#D97757;fill:none;stroke-width:2.0;stroke-dasharray:-;stroke-linecap:round;stroke-linejoin:round;" /><path d="M 114.14278579257493,-0.0 L 121.343,-0" style="stroke:#D97757;fill:none;stroke-width:2.0;stroke-dasharray:-;stroke-linecap:round;stroke-linejoin:round;" /><path d="M 117.74278579257494,3.599999999999999 L 117.743,-3.6" style="stroke:#D97757;fill:none;stroke-width:2.0;stroke-dasharray:-;stroke-linecap:round;stroke-linejoin:round;" /><path d="M 108.0,-45.0 L 91.8,-45 L 75.6,-45" style="stroke:#D97757;fill:none;stroke-width:2.0;stroke-dasharray:-;stroke-linecap:round;stroke-linejoin:round;" /><path d="M 185.94228634059948,-22.5 L 194.042,-22.5 L 202.142,-22.5" style="stroke:#D97757;fill:none;stroke-width:2.0;stroke-dasharray:-;stroke-linecap:round;stroke-linejoin:round;" /><path d="M 202.14228634059947,-22.5 L 215.342,-22.5" style="stroke:#D97757;fill:none;stroke-width:2.0;stroke-dasharray:-;stroke-linecap:round;stroke-linejoin:round;" /><path d="M 215.34228634059946,-35.7 L 215.342,-9.3" style="stroke:#D97757;fill:none;stroke-width:2.0;stroke-dasharray:-;stroke-linecap:round;stroke-linejoin:round;" /><path d="M 215.34228634059946,-29.1 L 229.202,-40.98 L 229.202,-47.58" style="stroke:#D97757;fill:none;stroke-width:2.0;stroke-dasharray:-;stroke-linecap:round;stroke-linejoin:round;" /><path d="M 215.34228634059946,-15.899999999999999 L 229.202,-4.02 L 229.202,2.58" style="stroke:#D97757;fill:none;stroke-width:2.0;stroke-dasharray:-;stroke-linecap:round;stroke-linejoin:round;" /><path d="M 215.34228634059946,-15.899999999999999 L 222.369,-9.877" style="stroke:#D97757;fill:none;stroke-width:2.0;stroke-dasharray:-;stroke-linecap:round;stroke-linejoin:round;" /><path d="M 227.684 -5.322 L 220.026 -7.144 L 224.712 -12.61 Z" style="stroke:#D97757;fill:#d97757;stroke-linecap:butt;stroke-linejoin:miter;" /><path d="M 229.20228634059947,-47.580000000000005 L 229.202,-60.18 L 229.202,-72.78" style="stroke:#D97757;fill:none;stroke-width:2.0;stroke-dasharray:-;stroke-linecap:round;stroke-linejoin:round;" /><path d="M 229.20228634059947,2.5799999999999996 L 229.202,8.88 L 229.202,15.18" style="stroke:#D97757;fill:none;stroke-width:2.0;stroke-dasharray:-;stroke-linecap:round;stroke-linejoin:round;" /><path d="M 229.20228634059947,15.18 L 229.202,51.18 L 238.202,54.18 L 220.202,60.18 L 238.202,66.18 L 220.202,72.18 L 238.202,78.18 L 220.202,84.18 L 229.202,87.18 L 229.202,123.18" style="stroke:#D97757;fill:none;stroke-width:2.0;stroke-dasharray:-;stroke-linecap:round;stroke-linejoin:round;" /><path d="M 229.20228634059944,123.18 L 229.202,159.18 L 238.202,162.18 L 220.202,168.18 L 238.202,174.18 L 220.202,180.18 L 238.202,186.18 L 220.202,192.18 L 229.202,195.18 L 229.202,231.18" style="stroke:#D97757;fill:none;stroke-width:2.0;stroke-dasharray:-;stroke-linecap:round;stroke-linejoin:round;" /><path d="M 229.20228634059941,231.18 L 229.202,245.58 L 220.202,245.58 L 238.202,245.58 M 222.902,249.9 L 235.502,249.9 M 227.402,254.22 L 231.002,254.22" style="stroke:#D97757;fill:none;stroke-width:2.0;stroke-dasharray:-;stroke-linecap:round;stroke-linejoin:round;" /><path d="M 229.20228634059944,123.18 L 245.402,123.18 L 261.602,123.18" style="stroke:#D97757;fill:none;stroke-width:2.0;stroke-dasharray:-;stroke-linecap:round;stroke-linejoin:round;" /><path d="M 261.60228634059945,123.18 L 261.602,173.94 M 270.602,173.94 L 252.602,173.94 M 270.602,180.42 L 252.602,180.42 M 261.602,180.42 L 261.602,231.18" style="stroke:#D97757;fill:none;stroke-width:2.0;stroke-dasharray:-;stroke-linecap:round;stroke-linejoin:round;" /><path d="M 261.60228634059945,231.18 L 261.602,245.58 L 252.602,245.58 L 270.602,245.58 M 255.302,249.9 L 267.902,249.9 M 259.802,254.22 L 263.402,254.22" style="stroke:#D97757;fill:none;stroke-width:2.0;stroke-dasharray:-;stroke-linecap:round;stroke-linejoin:round;" /><path d="M 229.20228634059944,123.18 L 152.401,123.18 L 75.6,123.18" style="stroke:#D97757;fill:none;stroke-width:2.0;stroke-dasharray:-;stroke-linecap:round;stroke-linejoin:round;" /><path d="M 75.60000000000002,123.17999999999999 L 75.6,39.09 L 75.6,-45" style="stroke:#D97757;fill:none;stroke-width:2.0;stroke-dasharray:-;stroke-linecap:round;stroke-linejoin:round;" /><text x="146.9711431702997" y="-82.10000000000001" dominant-baseline="ideographic" fill="#D97757" font-size="11" font-family="sans" text-anchor="middle"><tspan x="146.9711431702997" dy="11">Fig 5.3</tspan></text><text x="232.80228634059947" y="-33.2" dominant-baseline="central" fill="#D97757" font-size="11" font-family="sans" text-anchor="start"><tspan x="232.80228634059947" dy="11">NPN</tspan></text><text x="229.20228634059947" y="-87.38" dominant-baseline="ideographic" fill="#D97757" font-size="11" font-family="sans" text-anchor="middle"><tspan x="229.20228634059947" dy="11">Vu</tspan></text><text x="216.60228634059948" y="58.17999999999999" dominant-baseline="central" fill="#D97757" font-size="11" font-family="sans" text-anchor="end"><tspan x="216.60228634059948" dy="11">R</tspan></text><text x="216.60228634059945" y="166.18" dominant-baseline="central" fill="#D97757" font-size="11" font-family="sans" text-anchor="end"><tspan x="216.60228634059945" dy="11">RL</tspan></text><text x="249.00228634059945" y="166.18" dominant-baseline="central" fill="#D97757" font-size="11" font-family="sans" text-anchor="end"><tspan x="249.00228634059945" dy="11">CL</tspan></text><circle cx="0" cy="-0" r="2.7" style="stroke:#D97757;fill:white;stroke-width:2.0;stroke-dasharray:-;" /><text x="0.0" y="-17.3" dominant-baseline="ideographic" fill="#D97757" font-size="11" font-family="sans" text-anchor="middle"><tspan x="0.0" dy="11">VR</tspan></text><circle cx="75.6" cy="-45" r="2.7" style="stroke:#D97757;fill:#d97757;stroke-width:2.0;stroke-dasharray:-;" /><circle cx="229.202" cy="123.18" r="2.7" style="stroke:#D97757;fill:#d97757;stroke-width:2.0;stroke-dasharray:-;" /><text x="235.50228634059945" y="112.18" dominant-baseline="central" fill="#D97757" font-size="11" font-family="sans" text-anchor="start"><tspan x="235.50228634059945" dy="11">Vl</tspan></text></svg>